<?xml version="1.0" encoding="UTF-8"?>
<mxfile host="app.diagrams.net" modified="2024-03-19T10:00:00.000Z" agent="Mozilla/5.0" version="21.1.9" type="device">
  <diagram id="migration-sequence" name="Migration Process Sequence">
    <mxGraphModel dx="1422" dy="798" grid="1" gridSize="10" guides="1" tooltips="1" connect="1" arrows="1" fold="1" page="1" pageScale="1" pageWidth="1169" pageHeight="1200" math="0" shadow="0">
      <root>
        <mxCell id="0"/>
        <mxCell id="1" parent="0"/>
        
        <!-- Title -->
        <mxCell id="title" value="Java Migration Process Sequence" style="text;html=1;strokeColor=none;fillColor=none;align=center;verticalAlign=middle;rounded=0;fontSize=16;fontStyle=1" vertex="1" parent="1">
          <mxGeometry x="90" y="40" width="1070" height="30" as="geometry"/>
        </mxCell>

        <!-- Swimlanes -->
        <mxCell id="swimlane1" value="User Interaction" style="swimlane;fontStyle=1;childLayout=stackLayout;horizontal=1;startSize=30;horizontalStack=0;resizeParent=1;resizeParentMax=0;resizeLast=0;collapsible=1;marginBottom=0;fillColor=#fff2cc;strokeColor=#d6b656;" vertex="1" parent="1">
          <mxGeometry x="90" y="100" width="1070" height="120" as="geometry"/>
        </mxCell>
        <mxCell id="swimlane2" value="Analysis Phase" style="swimlane;fontStyle=1;childLayout=stackLayout;horizontal=1;startSize=30;horizontalStack=0;resizeParent=1;resizeParentMax=0;resizeLast=0;collapsible=1;marginBottom=0;fillColor=#dae8fc;strokeColor=#6c8ebf;" vertex="1" parent="1">
          <mxGeometry x="90" y="240" width="1070" height="300" as="geometry"/>
        </mxCell>
        <mxCell id="swimlane3" value="Migration Phase" style="swimlane;fontStyle=1;childLayout=stackLayout;horizontal=1;startSize=30;horizontalStack=0;resizeParent=1;resizeParentMax=0;resizeLast=0;collapsible=1;marginBottom=0;fillColor=#d5e8d4;strokeColor=#82b366;" vertex="1" parent="1">
          <mxGeometry x="90" y="560" width="1070" height="120" as="geometry"/>
        </mxCell>
        <mxCell id="swimlane4" value="Verification Phase" style="swimlane;fontStyle=1;childLayout=stackLayout;horizontal=1;startSize=30;horizontalStack=0;resizeParent=1;resizeParentMax=0;resizeLast=0;collapsible=1;marginBottom=0;fillColor=#e1d5e7;strokeColor=#9673a6;" vertex="1" parent="1">
          <mxGeometry x="90" y="700" width="1070" height="120" as="geometry"/>
        </mxCell>

        <!-- Actors -->
        <mxCell id="user" value="User" style="shape=umlActor;verticalLabelPosition=bottom;verticalAlign=top;html=1;" vertex="1" parent="1">
          <mxGeometry x="90" y="140" width="30" height="60" as="geometry"/>
        </mxCell>
        <mxCell id="orchestrator" value="Migration&#xa;Orchestrator" style="rounded=1;whiteSpace=wrap;html=1;fillColor=#dae8fc;strokeColor=#6c8ebf;" vertex="1" parent="1">
          <mxGeometry x="200" y="140" width="120" height="60" as="geometry"/>
        </mxCell>
        <mxCell id="file_explorer" value="MCP File&#xa;Explorer" style="rounded=1;whiteSpace=wrap;html=1;fillColor=#d5e8d4;strokeColor=#82b366;" vertex="1" parent="1">
          <mxGeometry x="400" y="140" width="120" height="60" as="geometry"/>
        </mxCell>
        <mxCell id="file_parser" value="MCP File&#xa;Parser" style="rounded=1;whiteSpace=wrap;html=1;fillColor=#d5e8d4;strokeColor=#82b366;" vertex="1" parent="1">
          <mxGeometry x="600" y="140" width="120" height="60" as="geometry"/>
        </mxCell>
        <mxCell id="maven" value="MCP Maven&#xa;Manager" style="rounded=1;whiteSpace=wrap;html=1;fillColor=#d5e8d4;strokeColor=#82b366;" vertex="1" parent="1">
          <mxGeometry x="800" y="140" width="120" height="60" as="geometry"/>
        </mxCell>
        <mxCell id="llm" value="Gemini&#xa;LLM" style="rounded=1;whiteSpace=wrap;html=1;fillColor=#e1d5e7;strokeColor=#9673a6;" vertex="1" parent="1">
          <mxGeometry x="1000" y="140" width="120" height="60" as="geometry"/>
        </mxCell>

        <!-- Process Flow -->
        <!-- Initial Analysis -->
        <mxCell id="start" value="Start Migration" style="ellipse;whiteSpace=wrap;html=1;fillColor=#dae8fc;strokeColor=#6c8ebf;" vertex="1" parent="1">
          <mxGeometry x="200" y="280" width="120" height="60" as="geometry"/>
        </mxCell>

        <!-- Project Structure Analysis -->
        <mxCell id="arrow1" value="Request Project&#xa;Structure" style="endArrow=block;endSize=12;endFill=1;html=1;rounded=0;exitX=1;exitY=0.5;exitDx=0;exitDy=0;entryX=0;entryY=0.5;entryDx=0;entryDy=0;edgeStyle=orthogonalEdgeStyle;" edge="1" parent="1" source="start" target="explore">
          <mxGeometry width="160" relative="1" as="geometry"/>
        </mxCell>
        <mxCell id="explore" value="Explore Project&#xa;Structure" style="rounded=1;whiteSpace=wrap;html=1;fillColor=#d5e8d4;strokeColor=#82b366;" vertex="1" parent="1">
          <mxGeometry x="400" y="280" width="120" height="60" as="geometry"/>
        </mxCell>
        <mxCell id="arrow1_return" value="Return Project&#xa;Structure" style="endArrow=open;endSize=12;dashed=1;html=1;rounded=0;exitX=0;exitY=0.5;exitDx=0;exitDy=0;entryX=1;entryY=0.5;entryDx=0;entryDy=0;edgeStyle=orthogonalEdgeStyle;" edge="1" parent="1" source="explore" target="start">
          <mxGeometry width="160" relative="1" as="geometry"/>
        </mxCell>

        <!-- POM Analysis -->
        <mxCell id="arrow2" value="Request POM&#xa;Analysis" style="endArrow=block;endSize=12;endFill=1;html=1;rounded=0;exitX=1;exitY=0.5;exitDx=0;exitDy=0;entryX=0;entryY=0.5;entryDx=0;entryDy=0;edgeStyle=orthogonalEdgeStyle;" edge="1" parent="1" source="start" target="pom">
          <mxGeometry width="160" relative="1" as="geometry"/>
        </mxCell>
        <mxCell id="pom" value="Analyze POM&#xa;Dependencies" style="rounded=1;whiteSpace=wrap;html=1;fillColor=#d5e8d4;strokeColor=#82b366;" vertex="1" parent="1">
          <mxGeometry x="600" y="380" width="120" height="60" as="geometry"/>
        </mxCell>
        <mxCell id="arrow2_return" value="Return POM&#xa;Analysis" style="endArrow=open;endSize=12;dashed=1;html=1;rounded=0;exitX=0;exitY=0.5;exitDx=0;exitDy=0;entryX=1;entryY=0.5;entryDx=0;entryDy=0;edgeStyle=orthogonalEdgeStyle;" edge="1" parent="1" source="pom" target="start">
          <mxGeometry width="160" relative="1" as="geometry"/>
        </mxCell>

        <!-- Migration Tools Analysis -->
        <mxCell id="arrow_tools" value="Request Migration&#xa;Tools Analysis" style="endArrow=block;endSize=12;endFill=1;html=1;rounded=0;exitX=1;exitY=0.5;exitDx=0;exitDy=0;entryX=0;entryY=0.5;entryDx=0;entryDy=0;edgeStyle=orthogonalEdgeStyle;" edge="1" parent="1" source="start" target="tools_analyze">
          <mxGeometry width="160" relative="1" as="geometry"/>
        </mxCell>
        <mxCell id="tools_analyze" value="Analyze with&#xa;Migration Tools" style="rounded=1;whiteSpace=wrap;html=1;fillColor=#d5e8d4;strokeColor=#82b366;" vertex="1" parent="1">
          <mxGeometry x="400" y="480" width="120" height="60" as="geometry"/>
        </mxCell>
        <mxCell id="arrow_tools_return" value="Return Migration&#xa;Tools Analysis" style="endArrow=open;endSize=12;dashed=1;html=1;rounded=0;exitX=0;exitY=0.5;exitDx=0;exitDy=0;entryX=1;entryY=0.5;entryDx=0;entryDy=0;edgeStyle=orthogonalEdgeStyle;" edge="1" parent="1" source="tools_analyze" target="start">
          <mxGeometry width="160" relative="1" as="geometry"/>
        </mxCell>

        <!-- LLM Analysis -->
        <mxCell id="arrow3" value="Request Migration&#xa;Path Analysis" style="endArrow=block;endSize=12;endFill=1;html=1;rounded=0;exitX=1;exitY=0.5;exitDx=0;exitDy=0;entryX=0;entryY=0.5;entryDx=0;entryDy=0;edgeStyle=orthogonalEdgeStyle;" edge="1" parent="1" source="start" target="analyze">
          <mxGeometry width="160" relative="1" as="geometry"/>
        </mxCell>
        <mxCell id="analyze" value="Analyze Migration&#xa;Path" style="rounded=1;whiteSpace=wrap;html=1;fillColor=#e1d5e7;strokeColor=#9673a6;" vertex="1" parent="1">
          <mxGeometry x="1000" y="380" width="120" height="60" as="geometry"/>
        </mxCell>
        <mxCell id="arrow3_return" value="Return Migration&#xa;Path" style="endArrow=open;endSize=12;dashed=1;html=1;rounded=0;exitX=0;exitY=0.5;exitDx=0;exitDy=0;entryX=1;entryY=0.5;entryDx=0;entryDy=0;edgeStyle=orthogonalEdgeStyle;" edge="1" parent="1" source="analyze" target="start">
          <mxGeometry width="160" relative="1" as="geometry"/>
        </mxCell>

        <!-- Analysis Complete -->
        <mxCell id="analysis_complete" value="Analysis&#xa;Complete" style="rhombus;whiteSpace=wrap;html=1;fillColor=#dae8fc;strokeColor=#6c8ebf;" vertex="1" parent="1">
          <mxGeometry x="200" y="580" width="120" height="80" as="geometry"/>
        </mxCell>
        <mxCell id="arrow_analysis_complete" value="" style="endArrow=block;endSize=12;endFill=1;html=1;rounded=0;exitX=0.5;exitY=1;exitDx=0;exitDy=0;entryX=0.5;entryY=0;entryDx=0;entryDy=0;edgeStyle=orthogonalEdgeStyle;" edge="1" parent="1" source="start" target="analysis_complete">
          <mxGeometry width="160" relative="1" as="geometry"/>
        </mxCell>

        <!-- User Confirmation -->
        <mxCell id="arrow4" value="Show Migration&#xa;Path" style="endArrow=block;endSize=12;endFill=1;html=1;rounded=0;exitX=1;exitY=0.5;exitDx=0;exitDy=0;entryX=0;entryY=0.5;entryDx=0;entryDy=0;edgeStyle=orthogonalEdgeStyle;" edge="1" parent="1" source="analysis_complete" target="user">
          <mxGeometry width="160" relative="1" as="geometry"/>
        </mxCell>
        <mxCell id="confirm" value="User Confirms&#xa;Migration Path" style="rhombus;whiteSpace=wrap;html=1;fillColor=#fff2cc;strokeColor=#d6b656;" vertex="1" parent="1">
          <mxGeometry x="90" y="580" width="120" height="80" as="geometry"/>
        </mxCell>
        <mxCell id="arrow4_return" value="Confirmation" style="endArrow=block;endSize=12;endFill=1;html=1;rounded=0;exitX=1;exitY=0.5;exitDx=0;exitDy=0;entryX=0;entryY=0.5;entryDx=0;entryDy=0;edgeStyle=orthogonalEdgeStyle;" edge="1" parent="1" source="confirm" target="analysis_complete">
          <mxGeometry width="160" relative="1" as="geometry"/>
        </mxCell>

        <!-- Migration Execution -->
        <mxCell id="arrow5" value="Execute Migration" style="endArrow=block;endSize=12;endFill=1;html=1;rounded=0;exitX=1;exitY=0.5;exitDx=0;exitDy=0;entryX=0;entryY=0.5;entryDx=0;entryDy=0;edgeStyle=orthogonalEdgeStyle;" edge="1" parent="1" source="analysis_complete" target="maven">
          <mxGeometry width="160" relative="1" as="geometry"/>
        </mxCell>
        <mxCell id="execute" value="Execute&#xa;Migration" style="rounded=1;whiteSpace=wrap;html=1;fillColor=#d5e8d4;strokeColor=#82b366;" vertex="1" parent="1">
          <mxGeometry x="800" y="580" width="120" height="60" as="geometry"/>
        </mxCell>
        <mxCell id="arrow5_return" value="Migration&#xa;Results" style="endArrow=open;endSize=12;dashed=1;html=1;rounded=0;exitX=0;exitY=0.5;exitDx=0;exitDy=0;entryX=1;entryY=0.5;entryDx=0;entryDy=0;edgeStyle=orthogonalEdgeStyle;" edge="1" parent="1" source="execute" target="analysis_complete">
          <mxGeometry width="160" relative="1" as="geometry"/>
        </mxCell>

        <!-- Migration Tools Execution -->
        <mxCell id="arrow_tools_execute" value="Execute with&#xa;Migration Tools" style="endArrow=block;endSize=12;endFill=1;html=1;rounded=0;exitX=1;exitY=0.5;exitDx=0;exitDy=0;entryX=0;entryY=0.5;entryDx=0;entryDy=0;edgeStyle=orthogonalEdgeStyle;" edge="1" parent="1" source="analysis_complete" target="tools_execute">
          <mxGeometry width="160" relative="1" as="geometry"/>
        </mxCell>
        <mxCell id="tools_execute" value="Execute with&#xa;Migration Tools" style="rounded=1;whiteSpace=wrap;html=1;fillColor=#d5e8d4;strokeColor=#82b366;" vertex="1" parent="1">
          <mxGeometry x="400" y="580" width="120" height="60" as="geometry"/>
        </mxCell>
        <mxCell id="arrow_tools_execute_return" value="Migration Tools&#xa;Results" style="endArrow=open;endSize=12;dashed=1;html=1;rounded=0;exitX=0;exitY=0.5;exitDx=0;exitDy=0;entryX=1;entryY=0.5;entryDx=0;entryDy=0;edgeStyle=orthogonalEdgeStyle;" edge="1" parent="1" source="tools_execute" target="analysis_complete">
          <mxGeometry width="160" relative="1" as="geometry"/>
        </mxCell>

        <!-- Verification -->
        <mxCell id="arrow6" value="Verify Changes" style="endArrow=block;endSize=12;endFill=1;html=1;rounded=0;exitX=1;exitY=0.5;exitDx=0;exitDy=0;entryX=0;entryY=0.5;entryDx=0;entryDy=0;edgeStyle=orthogonalEdgeStyle;" edge="1" parent="1" source="analysis_complete" target="file_parser">
          <mxGeometry width="160" relative="1" as="geometry"/>
        </mxCell>
        <mxCell id="verify" value="Verify Changes&#xa;and Tests" style="rounded=1;whiteSpace=wrap;html=1;fillColor=#d5e8d4;strokeColor=#82b366;" vertex="1" parent="1">
          <mxGeometry x="600" y="720" width="120" height="60" as="geometry"/>
        </mxCell>
        <mxCell id="arrow6_return" value="Verification&#xa;Results" style="endArrow=open;endSize=12;dashed=1;html=1;rounded=0;exitX=0;exitY=0.5;exitDx=0;exitDy=0;entryX=1;entryY=0.5;entryDx=0;entryDy=0;edgeStyle=orthogonalEdgeStyle;" edge="1" parent="1" source="verify" target="analysis_complete">
          <mxGeometry width="160" relative="1" as="geometry"/>
        </mxCell>

        <!-- Report Generation -->
        <mxCell id="arrow7" value="Generate Report" style="endArrow=block;endSize=12;endFill=1;html=1;rounded=0;exitX=1;exitY=0.5;exitDx=0;exitDy=0;entryX=0;entryY=0.5;entryDx=0;entryDy=0;edgeStyle=orthogonalEdgeStyle;" edge="1" parent="1" source="analysis_complete" target="file_explorer">
          <mxGeometry width="160" relative="1" as="geometry"/>
        </mxCell>
        <mxCell id="report" value="Generate&#xa;Report" style="rounded=1;whiteSpace=wrap;html=1;fillColor=#dae8fc;strokeColor=#6c8ebf;" vertex="1" parent="1">
          <mxGeometry x="400" y="720" width="120" height="60" as="geometry"/>
        </mxCell>
        <mxCell id="arrow7_return" value="Migration&#xa;Report" style="endArrow=open;endSize=12;dashed=1;html=1;rounded=0;exitX=0;exitY=0.5;exitDx=0;exitDy=0;entryX=1;entryY=0.5;entryDx=0;entryDy=0;edgeStyle=orthogonalEdgeStyle;" edge="1" parent="1" source="report" target="analysis_complete">
          <mxGeometry width="160" relative="1" as="geometry"/>
        </mxCell>

        <!-- End -->
        <mxCell id="arrow8" value="Complete" style="endArrow=block;endSize=12;endFill=1;html=1;rounded=0;exitX=1;exitY=0.5;exitDx=0;exitDy=0;entryX=0;entryY=0.5;entryDx=0;entryDy=0;edgeStyle=orthogonalEdgeStyle;" edge="1" parent="1" source="analysis_complete" target="end">
          <mxGeometry width="160" relative="1" as="geometry"/>
        </mxCell>
        <mxCell id="end" value="End Migration" style="ellipse;whiteSpace=wrap;html=1;fillColor=#dae8fc;strokeColor=#6c8ebf;" vertex="1" parent="1">
          <mxGeometry x="200" y="720" width="120" height="60" as="geometry"/>
        </mxCell>

        <!-- Legend -->
        <mxCell id="legend" value="Legend" style="swimlane;fontStyle=1;childLayout=stackLayout;horizontal=1;startSize=30;horizontalStack=0;resizeParent=1;resizeParentMax=0;resizeLast=0;collapsible=1;marginBottom=0;fillColor=#f5f5f5;strokeColor=#666666;fontColor=#333333;" vertex="1" parent="1">
          <mxGeometry x="90" y="860" width="1070" height="180" as="geometry"/>
        </mxCell>
        <mxCell id="legend1" value="Process Steps" style="text;strokeColor=none;fillColor=none;align=left;verticalAlign=middle;spacingLeft=4;spacingRight=4;overflow=hidden;points=[[0,0.5],[1,0.5]];portConstraint=eastwest;rotatable=0;whiteSpace=wrap;html=1;fontStyle=1" vertex="1" parent="legend">
          <mxGeometry y="30" width="1070" height="30" as="geometry"/>
        </mxCell>
        <mxCell id="legend2" value="1. Initial Analysis: Project structure and dependencies" style="text;strokeColor=none;fillColor=none;align=left;verticalAlign=middle;spacingLeft=4;spacingRight=4;overflow=hidden;points=[[0,0.5],[1,0.5]];portConstraint=eastwest;rotatable=0;whiteSpace=wrap;html=1;" vertex="1" parent="legend">
          <mxGeometry y="60" width="1070" height="30" as="geometry"/>
        </mxCell>
        <mxCell id="legend3" value="2. Migration Execution: Apply changes and verify" style="text;strokeColor=none;fillColor=none;align=left;verticalAlign=middle;spacingLeft=4;spacingRight=4;overflow=hidden;points=[[0,0.5],[1,0.5]];portConstraint=eastwest;rotatable=0;whiteSpace=wrap;html=1;" vertex="1" parent="legend">
          <mxGeometry y="90" width="1070" height="30" as="geometry"/>
        </mxCell>
        <mxCell id="legend4" value="3. Report Generation: Summarize changes and results" style="text;strokeColor=none;fillColor=none;align=left;verticalAlign=middle;spacingLeft=4;spacingRight=4;overflow=hidden;points=[[0,0.5],[1,0.5]];portConstraint=eastwest;rotatable=0;whiteSpace=wrap;html=1;" vertex="1" parent="legend">
          <mxGeometry y="120" width="1070" height="30" as="geometry"/>
        </mxCell>
        <mxCell id="legend5" value="4. User Interaction: Confirm and validate changes" style="text;strokeColor=none;fillColor=none;align=left;verticalAlign=middle;spacingLeft=4;spacingRight=4;overflow=hidden;points=[[0,0.5],[1,0.5]];portConstraint=eastwest;rotatable=0;whiteSpace=wrap;html=1;" vertex="1" parent="legend">
          <mxGeometry y="150" width="1070" height="30" as="geometry"/>
        </mxCell>

      </root>
    </mxGraphModel>
  </diagram>
</mxfile> 



